<?xml version="1.0" encoding="utf-8"?>
<!-- Generator: Adobe Illustrator 18.0.0, SVG Export Plug-In . SVG Version: 6.00 Build 0)  -->
<!DOCTYPE svg PUBLIC "-//W3C//DTD SVG 1.1//EN" "http://www.w3.org/Graphics/SVG/1.1/DTD/svg11.dtd">
<svg version="1.1" id="图层_1" xmlns="http://www.w3.org/2000/svg" xmlns:xlink="http://www.w3.org/1999/xlink" x="0px" y="0px"
	 viewBox="0 0 163 40" enable-background="new 0 0 163 40" xml:space="preserve">
<g>
	<g>
		<path fill="#18A368" d="M65.4,12H53.8l0,1.2H63l-9,14.5h12.2c0,0,0,0,0,0v-1.3h-9.8L65.4,12z"/>
		<path fill="#18A368" d="M74.8,11.6c-2.2,0-3.8,0.7-5.2,2.1c-1.4,1.6-2.2,3.6-2.2,5.9c0,4.8,3.3,8.4,7.9,8.4c2.4,0,3.8-0.6,5.1-1.6
			l-1-1c-1.3,0.8-2.6,1.2-3.9,1.2c-3.5,0-5.9-2.3-6.4-6l-0.1-0.4h12.5c0.1,0,0.1,0,0.2,0c0,0,0-0.2,0-0.3c0-2.5-0.7-4.5-2-6
			C78.5,12.4,76.8,11.6,74.8,11.6z M80.1,18.9H69l0.1-0.5c0.7-3.4,2.9-5.6,5.6-5.6c1.4,0,2.6,0.5,3.6,1.4c1.1,1,1.7,2.4,1.8,4.3
			L80.1,18.9z"/>
		<path fill="#18A368" d="M91.1,11.6c-2.4,0-4.3,0.8-5.1,2.3c-0.6,1.1-1,2.1-1,4.2v9.4l1.4,0l0.1-8.6c0-1,0-2.4,0.4-3.4
			c0.7-1.8,2.6-2.6,4.3-2.6c1.7,0,3.7,0.8,4.3,2.6c0.4,0.9,0.4,2.2,0.4,3.2l0,8.9l1.5,0c0,0,0.1,0,0.1,0v-9.4c0-2.2-0.4-3.2-1-4.2
			C95.4,12.4,93.6,11.6,91.1,11.6z"/>
		<path fill="#18A368" d="M114.5,14.8c0,0-0.4-0.7-0.6-0.8c-1.9-1.9-3.7-2.3-5.4-2.3c-4.4,0-7.9,3.7-7.9,8.2c0,4.5,3.5,8.1,7.9,8.1
			c4.2,0,7.5-3.6,7.5-8.1V3.5l-1.4,0L114.5,14.8z M108.4,26.6c-3.5,0-6.4-3.1-6.4-6.8c0-3.8,2.9-6.9,6.4-6.9c3.5,0,6.1,2.9,6.1,6.9
			C114.5,23.7,111.9,26.6,108.4,26.6z"/>
	</g>
	<g>
		<path fill="#18A368" d="M127.6,11.3c-4.8,0-8.9,3.8-8.9,8.5c0,4.7,4,8.6,8.9,8.6c1.9,0,3.7-0.6,5.1-1.6v0.9c0,0.2,0.1,0.4,0.4,0.4
			h2.6c0.3,0,0.4-0.2,0.4-0.4v-7.8C136.1,15.1,132.5,11.3,127.6,11.3z M127.6,25.2c-3,0-5.4-2.5-5.4-5.5c0-3,2.4-5.4,5.4-5.4
			c3,0,5.1,2.5,5.1,5.4C132.7,22.8,130.7,25.2,127.6,25.2z"/>
		<path fill="#18A368" d="M147.9,11.3c-4.8,0-8.5,3.8-8.5,8.5v16.3c0,0.2,0.2,0.4,0.4,0.4h2.6c0.3,0,0.4-0.2,0.4-0.4v-9.4
			c1.4,1,3.1,1.6,5.1,1.6c4.9,0,8.9-3.8,8.9-8.6C156.8,15.1,152.8,11.3,147.9,11.3z M147.9,25.2c-3,0-5.1-2.5-5.1-5.5
			c0-3,2-5.4,5.1-5.4c3,0,5.5,2.5,5.5,5.4C153.4,22.8,150.9,25.2,147.9,25.2z"/>
		<path fill="#18A368" d="M161,9c-1.1,0-2-0.9-2-2c0-1.1,0.9-2,2-2c1.1,0,2,0.9,2,2C163,8,162.1,9,161,9z"/>
		<path fill="#18A368" d="M162.2,28h-2.6c-0.3,0-0.4-0.2-0.4-0.4V12c0-0.2,0.2-0.4,0.4-0.4h2.6c0.3,0,0.4,0.2,0.4,0.4v15.6
			C162.7,27.8,162.5,28,162.2,28z"/>
	</g>
</g>
<g>
	<path fill="#18A368" d="M7.6,33.8H5.5C9.2,37.6,14.3,40,20,40s10.8-2.4,14.5-6.2H15.1l1.7-1.8H36c2.5-3.3,4-7.5,4-12
		c0-5.2-2-9.8-5.2-13.4L7.6,33.8z"/>
	<path fill="#18A368" d="M32.4,6.5h2.4C31.1,2.5,25.8,0,20,0S8.9,2.5,5.2,6.5h19.7l-1.7,1.8H3.8C1.4,11.6,0,15.6,0,20
		c0,5.2,2,10,5.3,13.6L32.4,6.5z"/>
</g>
</svg>
